{
	"asset":{
		"generator":"Khronos glTF Blender I/O v4.1.62",
		"version":"2.0"
	},
	"scene":0,
	"scenes":[
		{
			"name":"Scene",
			"nodes":[
				0,
				1,
				2,
				3,
				4,
				5,
				6,
				7,
				8,
				9,
				10,
				11,
				12,
				13
			]
		}
	],
	"nodes":[
		{
			"mesh":0,
			"name":"CUERPO.001",
			"translation":[
				-0.8509461879730225,
				1.1145892143249512,
				0.24088811874389648
			]
		},
		{
			"mesh":1,
			"name":"PIES.001",
			"rotation":[
				0,
				0.6956950426101685,
				0,
				0.7183372974395752
			],
			"scale":[
				0.6956687569618225,
				0.6956685781478882,
				0.6956687569618225
			],
			"translation":[
				0.11785244941711426,
				0.03392273187637329,
				0.31259727478027344
			]
		},
		{
			"mesh":2,
			"name":"CABEZA",
			"scale":[
				2.0471763610839844,
				2.0471763610839844,
				2.0471763610839844
			],
			"translation":[
				-1,
				3,
				0
			]
		},
		{
			"mesh":3,
			"name":"DIENTE",
			"rotation":[
				0.02707327902317047,
				0.016379140317440033,
				-0.06322336941957474,
				0.9974977374076843
			],
			"scale":[
				0.21861489117145538,
				0.2186148762702942,
				0.2186148762702942
			],
			"translation":[
				0.47292229533195496,
				2.2810475826263428,
				-1.4294034242630005
			]
		},
		{
			"mesh":4,
			"name":"CEJAS",
			"scale":[
				2.0471763610839844,
				2.0471763610839844,
				2.2525644302368164
			],
			"translation":[
				-1,
				3,
				0
			]
		},
		{
			"mesh":5,
			"name":"pupila",
			"rotation":[
				0.05129925534129143,
				0.062127336859703064,
				0.3006206750869751,
				0.9503346681594849
			],
			"scale":[
				1.4601882696151733,
				6.204659938812256,
				4.367159366607666
			],
			"translation":[
				0.3694683015346527,
				1.6730148792266846,
				0.4604441523551941
			]
		},
		{
			"mesh":6,
			"name":"brillo ojo",
			"rotation":[
				0.022968744859099388,
				0.08765742182731628,
				-0.38951459527015686,
				0.9165517091751099
			],
			"scale":[
				-0.06306217610836029,
				-0.06306217610836029,
				-0.06306218355894089
			],
			"translation":[
				0.10305014252662659,
				3.5763344764709473,
				-0.556283712387085
			]
		},
		{
			"mesh":7,
			"name":"DIENTE.001",
			"rotation":[
				0.02707327902317047,
				0.016379140317440033,
				-0.06322336941957474,
				0.9974977374076843
			],
			"scale":[
				0.21861489117145538,
				0.2186148762702942,
				0.2186148762702942
			],
			"translation":[
				0.47120821475982666,
				2.4717302322387695,
				1.4594693183898926
			]
		},
		{
			"mesh":8,
			"name":"pupila.001",
			"rotation":[
				-0.14783091843128204,
				-0.006000699941068888,
				0.2643599510192871,
				0.9530078172683716
			],
			"scale":[
				1.4601882696151733,
				6.204659461975098,
				4.367159843444824
			],
			"translation":[
				-0.020052429288625717,
				2.1486423015594482,
				2.1398825645446777
			]
		},
		{
			"mesh":9,
			"name":"brillo ojo.001",
			"rotation":[
				-0.0842331200838089,
				-0.09426930546760559,
				-0.41699478030204773,
				0.9000741243362427
			],
			"scale":[
				-0.06306217610836029,
				-0.06306217610836029,
				-0.06306217610836029
			],
			"translation":[
				0.13523738086223602,
				3.5936548709869385,
				0.5227355360984802
			]
		},
		{
			"mesh":10,
			"name":"Plane",
			"scale":[
				35.48418045043945,
				35.48418045043945,
				35.48418045043945
			]
		},
		{
			"mesh":11,
			"name":"CABEZA.001",
			"translation":[
				-0.6852463483810425,
				2.5461981296539307,
				0
			]
		},
		{
			"mesh":12,
			"name":"CUERPO",
			"translation":[
				-0.9687986969947815,
				1.725426435470581,
				0
			]
		},
		{
			"mesh":13,
			"name":"PIES",
			"rotation":[
				0,
				-0.016010548919439316,
				0,
				0.9998718500137329
			],
			"scale":[
				0.6956687569618225,
				0.6956685781478882,
				0.6956687569618225
			],
			"translation":[
				0,
				0.6447598934173584,
				0.07170897722244263
			]
		}
	],
	"materials":[
		{
			"doubleSided":true,
			"name":"TORSO",
			"pbrMetallicRoughness":{
				"baseColorFactor":[
					0.18782074749469757,
					0.13286831974983215,
					0.07036010175943375,
					1
				],
				"metallicFactor":0,
				"roughnessFactor":0.5
			}
		},
		{
			"doubleSided":true,
			"name":"pies",
			"pbrMetallicRoughness":{
				"baseColorFactor":[
					0.09758735448122025,
					0.04817182198166847,
					0.03189603611826897,
					1
				],
				"metallicFactor":0,
				"roughnessFactor":0.4000000059604645
			}
		},
		{
			"doubleSided":true,
			"name":"CABEZA",
			"pbrMetallicRoughness":{
				"baseColorFactor":[
					0.15592645108699799,
					0.05126946046948433,
					0.021219007670879364,
					1
				],
				"metallicFactor":0,
				"roughnessFactor":0.5
			}
		},
		{
			"doubleSided":true,
			"name":"OJO BCO",
			"pbrMetallicRoughness":{
				"baseColorFactor":[
					0.9335121512413025,
					0.9702330231666565,
					1,
					1
				],
				"metallicFactor":0,
				"roughnessFactor":0.5
			}
		},
		{
			"doubleSided":true,
			"name":"CEJAS",
			"pbrMetallicRoughness":{
				"baseColorFactor":[
					0,
					0,
					0,
					1
				],
				"metallicFactor":0,
				"roughnessFactor":0.5
			}
		},
		{
			"doubleSided":true,
			"emissiveFactor":[
				0.48689714074134827,
				0.48689714074134827,
				0.48689714074134827
			],
			"name":"SUELO",
			"pbrMetallicRoughness":{
				"baseColorFactor":[
					0.800000011920929,
					0.800000011920929,
					0.800000011920929,
					1
				],
				"metallicFactor":0,
				"roughnessFactor":0.5
			}
		},
		{
			"doubleSided":true,
			"name":"CABEZA.001",
			"pbrMetallicRoughness":{
				"baseColorFactor":[
					0.800000011920929,
					0.800000011920929,
					0.800000011920929,
					1
				],
				"metallicFactor":0,
				"roughnessFactor":0.5
			}
		}
	],
	"meshes":[
		{
			"name":"Cube.003",
			"primitives":[
				{
					"attributes":{
						"POSITION":0,
						"NORMAL":1,
						"TEXCOORD_0":2
					},
					"indices":3,
					"material":0
				}
			]
		},
		{
			"name":"Cube.005",
			"primitives":[
				{
					"attributes":{
						"POSITION":4,
						"NORMAL":5,
						"TEXCOORD_0":6
					},
					"indices":7,
					"material":1
				}
			]
		},
		{
			"name":"Cube.006",
			"primitives":[
				{
					"attributes":{
						"POSITION":8,
						"NORMAL":9,
						"TEXCOORD_0":10
					},
					"indices":11,
					"material":2
				},
				{
					"attributes":{
						"POSITION":12,
						"NORMAL":13,
						"TEXCOORD_0":14
					},
					"indices":15,
					"material":3
				}
			]
		},
		{
			"name":"Cube.007",
			"primitives":[
				{
					"attributes":{
						"POSITION":16,
						"NORMAL":17,
						"TEXCOORD_0":18
					},
					"indices":19,
					"material":3
				}
			]
		},
		{
			"name":"Cube.011",
			"primitives":[
				{
					"attributes":{
						"POSITION":20,
						"NORMAL":21,
						"TEXCOORD_0":22
					},
					"indices":23,
					"material":4
				}
			]
		},
		{
			"name":"Cube.010",
			"primitives":[
				{
					"attributes":{
						"POSITION":24,
						"NORMAL":25,
						"TEXCOORD_0":26
					},
					"indices":27,
					"material":4
				}
			]
		},
		{
			"name":"Plane.001",
			"primitives":[
				{
					"attributes":{
						"POSITION":28,
						"NORMAL":29,
						"TEXCOORD_0":30
					},
					"indices":31,
					"material":3
				}
			]
		},
		{
			"name":"Cube.013",
			"primitives":[
				{
					"attributes":{
						"POSITION":32,
						"NORMAL":33,
						"TEXCOORD_0":34
					},
					"indices":19,
					"material":3
				}
			]
		},
		{
			"name":"Cube.014",
			"primitives":[
				{
					"attributes":{
						"POSITION":35,
						"NORMAL":36,
						"TEXCOORD_0":37
					},
					"indices":27,
					"material":4
				}
			]
		},
		{
			"name":"Plane.002",
			"primitives":[
				{
					"attributes":{
						"POSITION":38,
						"NORMAL":39,
						"TEXCOORD_0":40
					},
					"indices":31,
					"material":3
				}
			]
		},
		{
			"name":"Plane.003",
			"primitives":[
				{
					"attributes":{
						"POSITION":41,
						"NORMAL":42,
						"TEXCOORD_0":43
					},
					"indices":31,
					"material":5
				}
			]
		},
		{
			"name":"Cube.002",
			"primitives":[
				{
					"attributes":{
						"POSITION":44,
						"NORMAL":45,
						"TEXCOORD_0":46
					},
					"indices":3,
					"material":6
				}
			]
		},
		{
			"name":"Cube.001",
			"primitives":[
				{
					"attributes":{
						"POSITION":47,
						"NORMAL":48,
						"TEXCOORD_0":49
					},
					"indices":3,
					"material":0
				}
			]
		},
		{
			"name":"Cube",
			"primitives":[
				{
					"attributes":{
						"POSITION":50,
						"NORMAL":51,
						"TEXCOORD_0":52
					},
					"indices":53,
					"material":1
				}
			]
		}
	],
	"accessors":[
		{
			"bufferView":0,
			"componentType":5126,
			"count":14,
			"max":[
				1.0650897026062012,
				1,
				1.463028907775879
			],
			"min":[
				-1.065089464187622,
				-1,
				-1.463028907775879
			],
			"type":"VEC3"
		},
		{
			"bufferView":1,
			"componentType":5126,
			"count":14,
			"type":"VEC3"
		},
		{
			"bufferView":2,
			"componentType":5126,
			"count":14,
			"type":"VEC2"
		},
		{
			"bufferView":3,
			"componentType":5123,
			"count":36,
			"type":"SCALAR"
		},
		{
			"bufferView":4,
			"componentType":5126,
			"count":27,
			"max":[
				0.3429845869541168,
				0.9887394309043884,
				0.46139800548553467
			],
			"min":[
				-3.264611005783081,
				-0.2964201867580414,
				-3.177851676940918
			],
			"type":"VEC3"
		},
		{
			"bufferView":5,
			"componentType":5126,
			"count":27,
			"type":"VEC3"
		},
		{
			"bufferView":6,
			"componentType":5126,
			"count":27,
			"type":"VEC2"
		},
		{
			"bufferView":7,
			"componentType":5123,
			"count":60,
			"type":"SCALAR"
		},
		{
			"bufferView":8,
			"componentType":5126,
			"count":72372,
			"max":[
				1.0422086715698242,
				0.8717504739761353,
				1.2123990058898926
			],
			"min":[
				-1.2137831449508667,
				-0.8838590979576111,
				-1.2123990058898926
			],
			"type":"VEC3"
		},
		{
			"bufferView":9,
			"componentType":5126,
			"count":72372,
			"type":"VEC3"
		},
		{
			"bufferView":10,
			"componentType":5126,
			"count":72372,
			"type":"VEC2"
		},
		{
			"bufferView":11,
			"componentType":5125,
			"count":415296,
			"type":"SCALAR"
		},
		{
			"bufferView":12,
			"componentType":5126,
			"count":7316,
			"max":[
				0.7976817488670349,
				0.45554104447364807,
				0.5752303600311279
			],
			"min":[
				0.38521870970726013,
				-0.11204828321933746,
				-0.5752303600311279
			],
			"type":"VEC3"
		},
		{
			"bufferView":13,
			"componentType":5126,
			"count":7316,
			"type":"VEC3"
		},
		{
			"bufferView":14,
			"componentType":5126,
			"count":7316,
			"type":"VEC2"
		},
		{
			"bufferView":15,
			"componentType":5123,
			"count":38592,
			"type":"SCALAR"
		},
		{
			"bufferView":16,
			"componentType":5126,
			"count":24,
			"max":[
				1,
				2.5830066204071045,
				1
			],
			"min":[
				-1,
				-1,
				-1
			],
			"type":"VEC3"
		},
		{
			"bufferView":17,
			"componentType":5126,
			"count":24,
			"type":"VEC3"
		},
		{
			"bufferView":18,
			"componentType":5126,
			"count":24,
			"type":"VEC2"
		},
		{
			"bufferView":19,
			"componentType":5123,
			"count":36,
			"type":"SCALAR"
		},
		{
			"bufferView":20,
			"componentType":5126,
			"count":16,
			"max":[
				0.544806957244873,
				0.9727509617805481,
				0.8195474743843079
			],
			"min":[
				0.23394446074962616,
				0.3665633797645569,
				0.0694003626704216
			],
			"type":"VEC3"
		},
		{
			"bufferView":21,
			"componentType":5126,
			"count":16,
			"type":"VEC3"
		},
		{
			"bufferView":22,
			"componentType":5126,
			"count":16,
			"type":"VEC2"
		},
		{
			"bufferView":23,
			"componentType":5123,
			"count":84,
			"type":"SCALAR"
		},
		{
			"bufferView":24,
			"componentType":5126,
			"count":6,
			"max":[
				0.6315031051635742,
				0.25315600633621216,
				-0.20696574449539185
			],
			"min":[
				0.5315496921539307,
				0.13377109169960022,
				-0.30489253997802734
			],
			"type":"VEC3"
		},
		{
			"bufferView":25,
			"componentType":5126,
			"count":6,
			"type":"VEC3"
		},
		{
			"bufferView":26,
			"componentType":5126,
			"count":6,
			"type":"VEC2"
		},
		{
			"bufferView":27,
			"componentType":5123,
			"count":12,
			"type":"SCALAR"
		},
		{
			"bufferView":28,
			"componentType":5126,
			"count":4,
			"max":[
				0.975517988204956,
				0.03217601403594017,
				0.8982335925102234
			],
			"min":[
				-0.950810432434082,
				-0.04269623011350632,
				-0.8302544355392456
			],
			"type":"VEC3"
		},
		{
			"bufferView":29,
			"componentType":5126,
			"count":4,
			"type":"VEC3"
		},
		{
			"bufferView":30,
			"componentType":5126,
			"count":4,
			"type":"VEC2"
		},
		{
			"bufferView":31,
			"componentType":5123,
			"count":6,
			"type":"SCALAR"
		},
		{
			"bufferView":32,
			"componentType":5126,
			"count":24,
			"max":[
				1,
				2.5830066204071045,
				1
			],
			"min":[
				-1,
				-1,
				-1
			],
			"type":"VEC3"
		},
		{
			"bufferView":33,
			"componentType":5126,
			"count":24,
			"type":"VEC3"
		},
		{
			"bufferView":34,
			"componentType":5126,
			"count":24,
			"type":"VEC2"
		},
		{
			"bufferView":35,
			"componentType":5126,
			"count":6,
			"max":[
				0.6315031051635742,
				0.25315600633621216,
				-0.20696574449539185
			],
			"min":[
				0.5315496921539307,
				0.13377109169960022,
				-0.30489253997802734
			],
			"type":"VEC3"
		},
		{
			"bufferView":36,
			"componentType":5126,
			"count":6,
			"type":"VEC3"
		},
		{
			"bufferView":37,
			"componentType":5126,
			"count":6,
			"type":"VEC2"
		},
		{
			"bufferView":38,
			"componentType":5126,
			"count":4,
			"max":[
				0.975517988204956,
				0.03217601403594017,
				0.8982335925102234
			],
			"min":[
				-0.950810432434082,
				-0.04269623011350632,
				-0.8302544355392456
			],
			"type":"VEC3"
		},
		{
			"bufferView":39,
			"componentType":5126,
			"count":4,
			"type":"VEC3"
		},
		{
			"bufferView":40,
			"componentType":5126,
			"count":4,
			"type":"VEC2"
		},
		{
			"bufferView":41,
			"componentType":5126,
			"count":4,
			"max":[
				1,
				0,
				1
			],
			"min":[
				-1,
				0,
				-1
			],
			"type":"VEC3"
		},
		{
			"bufferView":42,
			"componentType":5126,
			"count":4,
			"type":"VEC3"
		},
		{
			"bufferView":43,
			"componentType":5126,
			"count":4,
			"type":"VEC2"
		},
		{
			"bufferView":44,
			"componentType":5126,
			"count":14,
			"max":[
				2.22092866897583,
				3.352297306060791,
				3.9236655235290527
			],
			"min":[
				-2.22092866897583,
				-1,
				-3.9236655235290527
			],
			"type":"VEC3"
		},
		{
			"bufferView":45,
			"componentType":5126,
			"count":14,
			"type":"VEC3"
		},
		{
			"bufferView":46,
			"componentType":5126,
			"count":14,
			"type":"VEC2"
		},
		{
			"bufferView":47,
			"componentType":5126,
			"count":14,
			"max":[
				1.0650897026062012,
				1,
				1.463028907775879
			],
			"min":[
				-1.065089464187622,
				-1,
				-1.463028907775879
			],
			"type":"VEC3"
		},
		{
			"bufferView":48,
			"componentType":5126,
			"count":14,
			"type":"VEC3"
		},
		{
			"bufferView":49,
			"componentType":5126,
			"count":14,
			"type":"VEC2"
		},
		{
			"bufferView":50,
			"componentType":5126,
			"count":40,
			"max":[
				0.3429845869541168,
				0.9999998807907104,
				3.177851676940918
			],
			"min":[
				-3.264611005783081,
				-0.2964201867580414,
				-3.177851676940918
			],
			"type":"VEC3"
		},
		{
			"bufferView":51,
			"componentType":5126,
			"count":40,
			"type":"VEC3"
		},
		{
			"bufferView":52,
			"componentType":5126,
			"count":40,
			"type":"VEC2"
		},
		{
			"bufferView":53,
			"componentType":5123,
			"count":72,
			"type":"SCALAR"
		}
	],
	"bufferViews":[
		{
			"buffer":0,
			"byteLength":168,
			"byteOffset":0,
			"target":34962
		},
		{
			"buffer":0,
			"byteLength":168,
			"byteOffset":168,
			"target":34962
		},
		{
			"buffer":0,
			"byteLength":112,
			"byteOffset":336,
			"target":34962
		},
		{
			"buffer":0,
			"byteLength":72,
			"byteOffset":448,
			"target":34963
		},
		{
			"buffer":0,
			"byteLength":324,
			"byteOffset":520,
			"target":34962
		},
		{
			"buffer":0,
			"byteLength":324,
			"byteOffset":844,
			"target":34962
		},
		{
			"buffer":0,
			"byteLength":216,
			"byteOffset":1168,
			"target":34962
		},
		{
			"buffer":0,
			"byteLength":120,
			"byteOffset":1384,
			"target":34963
		},
		{
			"buffer":0,
			"byteLength":868464,
			"byteOffset":1504,
			"target":34962
		},
		{
			"buffer":0,
			"byteLength":868464,
			"byteOffset":869968,
			"target":34962
		},
		{
			"buffer":0,
			"byteLength":578976,
			"byteOffset":1738432,
			"target":34962
		},
		{
			"buffer":0,
			"byteLength":1661184,
			"byteOffset":2317408,
			"target":34963
		},
		{
			"buffer":0,
			"byteLength":87792,
			"byteOffset":3978592,
			"target":34962
		},
		{
			"buffer":0,
			"byteLength":87792,
			"byteOffset":4066384,
			"target":34962
		},
		{
			"buffer":0,
			"byteLength":58528,
			"byteOffset":4154176,
			"target":34962
		},
		{
			"buffer":0,
			"byteLength":77184,
			"byteOffset":4212704,
			"target":34963
		},
		{
			"buffer":0,
			"byteLength":288,
			"byteOffset":4289888,
			"target":34962
		},
		{
			"buffer":0,
			"byteLength":288,
			"byteOffset":4290176,
			"target":34962
		},
		{
			"buffer":0,
			"byteLength":192,
			"byteOffset":4290464,
			"target":34962
		},
		{
			"buffer":0,
			"byteLength":72,
			"byteOffset":4290656,
			"target":34963
		},
		{
			"buffer":0,
			"byteLength":192,
			"byteOffset":4290728,
			"target":34962
		},
		{
			"buffer":0,
			"byteLength":192,
			"byteOffset":4290920,
			"target":34962
		},
		{
			"buffer":0,
			"byteLength":128,
			"byteOffset":4291112,
			"target":34962
		},
		{
			"buffer":0,
			"byteLength":168,
			"byteOffset":4291240,
			"target":34963
		},
		{
			"buffer":0,
			"byteLength":72,
			"byteOffset":4291408,
			"target":34962
		},
		{
			"buffer":0,
			"byteLength":72,
			"byteOffset":4291480,
			"target":34962
		},
		{
			"buffer":0,
			"byteLength":48,
			"byteOffset":4291552,
			"target":34962
		},
		{
			"buffer":0,
			"byteLength":24,
			"byteOffset":4291600,
			"target":34963
		},
		{
			"buffer":0,
			"byteLength":48,
			"byteOffset":4291624,
			"target":34962
		},
		{
			"buffer":0,
			"byteLength":48,
			"byteOffset":4291672,
			"target":34962
		},
		{
			"buffer":0,
			"byteLength":32,
			"byteOffset":4291720,
			"target":34962
		},
		{
			"buffer":0,
			"byteLength":12,
			"byteOffset":4291752,
			"target":34963
		},
		{
			"buffer":0,
			"byteLength":288,
			"byteOffset":4291764,
			"target":34962
		},
		{
			"buffer":0,
			"byteLength":288,
			"byteOffset":4292052,
			"target":34962
		},
		{
			"buffer":0,
			"byteLength":192,
			"byteOffset":4292340,
			"target":34962
		},
		{
			"buffer":0,
			"byteLength":72,
			"byteOffset":4292532,
			"target":34962
		},
		{
			"buffer":0,
			"byteLength":72,
			"byteOffset":4292604,
			"target":34962
		},
		{
			"buffer":0,
			"byteLength":48,
			"byteOffset":4292676,
			"target":34962
		},
		{
			"buffer":0,
			"byteLength":48,
			"byteOffset":4292724,
			"target":34962
		},
		{
			"buffer":0,
			"byteLength":48,
			"byteOffset":4292772,
			"target":34962
		},
		{
			"buffer":0,
			"byteLength":32,
			"byteOffset":4292820,
			"target":34962
		},
		{
			"buffer":0,
			"byteLength":48,
			"byteOffset":4292852,
			"target":34962
		},
		{
			"buffer":0,
			"byteLength":48,
			"byteOffset":4292900,
			"target":34962
		},
		{
			"buffer":0,
			"byteLength":32,
			"byteOffset":4292948,
			"target":34962
		},
		{
			"buffer":0,
			"byteLength":168,
			"byteOffset":4292980,
			"target":34962
		},
		{
			"buffer":0,
			"byteLength":168,
			"byteOffset":4293148,
			"target":34962
		},
		{
			"buffer":0,
			"byteLength":112,
			"byteOffset":4293316,
			"target":34962
		},
		{
			"buffer":0,
			"byteLength":168,
			"byteOffset":4293428,
			"target":34962
		},
		{
			"buffer":0,
			"byteLength":168,
			"byteOffset":4293596,
			"target":34962
		},
		{
			"buffer":0,
			"byteLength":112,
			"byteOffset":4293764,
			"target":34962
		},
		{
			"buffer":0,
			"byteLength":480,
			"byteOffset":4293876,
			"target":34962
		},
		{
			"buffer":0,
			"byteLength":480,
			"byteOffset":4294356,
			"target":34962
		},
		{
			"buffer":0,
			"byteLength":320,
			"byteOffset":4294836,
			"target":34962
		},
		{
			"buffer":0,
			"byteLength":144,
			"byteOffset":4295156,
			"target":34963
		}
	],
	"buffers":[
		{
			"byteLength":4295300,
			"uri":"GOOMBA.bin"
		}
	]
}
